<?xml version="1.0" encoding="UTF-8"?>
<!-- Generated by Pixelmator Pro 3.7.1 -->
<svg width="512" height="512" viewBox="0 0 512 512" xmlns="http://www.w3.org/2000/svg">
    <clipPath id="clipPath1">
        <path clip-rule="evenodd" d="M 134.749173 451.485613 C 134.416624 450.861624 133.950821 450.41003 133.353974 450.135724 C 131.951736 448.481912 130.538675 446.83442 129.114731 445.19314 C 95.31671 387.008989 61.671774 328.734251 28.181404 270.37149 C 23.502181 259.141506 24.142869 248.251207 30.103205 237.700147 C 62.641809 181.347727 95.18063 124.995147 127.719235 68.642726 C 135.034512 57.414507 145.40612 51.734372 158.834257 51.602206 C 223.719719 51.747164 288.594158 51.755627 353.455056 51.628699 C 365.211999 51.922986 374.64389 56.792825 381.750698 66.238163 C 415.549848 124.422649 449.194784 182.697387 482.684024 241.059814 C 487.305845 251.998391 486.85131 262.677789 481.321717 273.100253 C 448.784427 329.442682 416.244211 385.796036 383.705721 442.157658 C 376.87846 453.45249 366.883327 459.429505 353.719228 460.086198 C 287.797735 459.923881 221.887188 459.896827 155.988999 460.007404 C 147.923976 459.573839 140.844187 456.733154 134.749173 451.485613 Z"/>
    </clipPath>
    <g id="Associer" clip-path="url(#clipPath1)">
        <g id="Ligne-2">
            <path id="Triangle" fill="#2d4199" fill-rule="evenodd" stroke="none" d="M 70.887253 147.791199 L 8.6648 255.772583 L 133.109711 255.772583 Z"/>
            <path id="Triangle-copie-3" fill="#9f295b" fill-rule="evenodd" stroke="none" d="M 436.734619 147.791199 L 374.512146 255.772583 L 498.957062 255.772583 Z"/>
            <path id="Triangle-copie" fill="#363592" fill-rule="evenodd" stroke="none" d="M 193.373596 147.791199 L 131.151138 255.772583 L 255.596054 255.772583 Z"/>
            <path id="Triangle-copie-2" fill="#4d308c" fill-rule="evenodd" stroke="none" d="M 314.24826 147.791199 L 252.025818 255.772583 L 376.470734 255.772583 Z"/>
        </g>
        <g id="Ligne-2-inv">
            <path id="path1" fill="#343795" fill-rule="evenodd" stroke="none" d="M 375.148438 257.384216 L 437.37088 149.402863 L 312.925964 149.402863 Z"/>
            <path id="path2" fill="#353896" fill-rule="evenodd" stroke="none" d="M 252.662094 257.384216 L 314.884552 149.402863 L 190.439636 149.402863 Z"/>
            <path id="path3" fill="#284fa1" fill-rule="evenodd" stroke="none" d="M 131.787415 257.384216 L 194.009857 149.402863 L 69.564957 149.402863 Z"/>
            <path id="Triangle-copie-8" fill="#4f9ac7" fill-rule="evenodd" stroke="none" d="M 377.103119 43.033142 L 314.880646 151.014526 L 439.325562 151.014526 Z"/>
            <path id="Triangle-copie-7" fill="#2d61ac" fill-rule="evenodd" stroke="none" d="M 132.130417 43.033142 L 69.907967 151.014526 L 194.352875 151.014526 Z"/>
            <path id="Triangle-copie-6" fill="#3371b2" fill-rule="evenodd" stroke="none" d="M 253.005096 43.033142 L 190.782654 151.014526 L 315.22757 151.014526 Z"/>
            <path id="Triangle-copie-5" fill="#4ba1c8" fill-rule="evenodd" stroke="none" d="M 315.516907 152.62619 L 377.73938 44.644806 L 253.294464 44.644806 Z"/>
            <path id="Triangle-copie-4" fill="#3a79b6" fill-rule="evenodd" stroke="none" d="M 191.418915 152.62619 L 253.641373 44.644806 L 129.196457 44.644806 Z"/>
        </g>
        <g id="Ligne-3">
            <path id="path4" fill="#e2322b" fill-rule="evenodd" stroke="none" d="M 437.999359 362.142273 L 500.221832 254.160919 L 375.776917 254.160919 Z"/>
            <path id="path5" fill="#4f2e89" fill-rule="evenodd" stroke="none" d="M 72.152008 362.142273 L 134.374466 254.160919 L 9.929557 254.160919 Z"/>
            <path id="path6" fill="#8c296c" fill-rule="evenodd" stroke="none" d="M 315.513031 362.142273 L 377.735474 254.160919 L 253.290573 254.160919 Z"/>
            <path id="path7" fill="#762a7c" fill-rule="evenodd" stroke="none" d="M 194.638351 362.142273 L 256.860809 254.160919 L 132.415894 254.160919 Z"/>
            <path id="path8" fill="#602c80" fill-rule="evenodd" stroke="none" d="M 133.73819 250.937592 L 71.515739 358.918976 L 195.960648 358.918976 Z"/>
            <path id="path9" fill="#872971" fill-rule="evenodd" stroke="none" d="M 256.224548 250.937592 L 194.002075 358.918976 L 318.446991 358.918976 Z"/>
            <path id="path10" fill="#b42b47" fill-rule="evenodd" stroke="none" d="M 377.099213 250.937592 L 314.87677 358.918976 L 439.321655 358.918976 Z"/>
        </g>
        <g id="Ligne-3-inv">
            <path id="path11" fill="#88296d" fill-rule="evenodd" stroke="none" d="M 131.783524 466.90033 L 194.005966 358.918945 L 69.561066 358.918945 Z"/>
            <path id="path12" fill="#ce2c34" fill-rule="evenodd" stroke="none" d="M 376.756195 466.90033 L 438.978638 358.918945 L 314.533752 358.918945 Z"/>
            <path id="path13" fill="#aa2854" fill-rule="evenodd" stroke="none" d="M 255.881516 466.90033 L 318.103973 358.918945 L 193.659073 358.918945 Z"/>
            <path id="path14" fill="#9a2a62" fill-rule="evenodd" stroke="none" d="M 193.369705 357.307312 L 131.147247 465.288696 L 255.592163 465.288696 Z"/>
            <path id="path15" fill="#ba2b49" fill-rule="evenodd" stroke="none" d="M 317.467712 357.307312 L 255.245255 465.288696 L 379.690155 465.288696 Z"/>
        </g>
    </g>
</svg>
