<?xml version="1.0" encoding="UTF-8"?>
<!-- Generated by Pixelmator Pro 3.7.1 -->
<svg width="128" height="128" viewBox="0 0 128 128" xmlns="http://www.w3.org/2000/svg">
    <linearGradient id="linearGradient1" x1="16" y1="8" x2="112" y2="120" gradientUnits="userSpaceOnUse">
        <stop offset="1e-05" stop-color="#3245ff" stop-opacity="1"/>
        <stop offset="1" stop-color="#bc52ee" stop-opacity="1"/>
    </linearGradient>
    <path id="Trac" fill="none" stroke="url(#linearGradient1)" stroke-width="6" stroke-linejoin="round" d="M 64 8 L 112 36 L 112 92 L 64 120 L 16 92 L 16 36 Z"/>
    <linearGradient id="linearGradient2" x1="32" y1="28" x2="96" y2="100" gradientUnits="userSpaceOnUse">
        <stop offset="1e-05" stop-color="#3245ff" stop-opacity="1"/>
        <stop offset="1" stop-color="#bc52ee" stop-opacity="1"/>
    </linearGradient>
    <path id="path1" fill="url(#linearGradient2)" stroke="none" opacity="0.3" d="M 64 28 L 96 46 L 96 82 L 64 100 L 32 82 L 32 46 Z"/>
    <path id="path2" fill="#000000" stroke="none" d="M 64 52 L 64 28"/>
    <linearGradient id="linearGradient3" x1="97.743015" y1="80.772537" x2="72.256985" y2="70.227463" gradientUnits="userSpaceOnUse">
        <stop offset="1e-05" stop-color="#3245ff" stop-opacity="1"/>
        <stop offset="1" stop-color="#bc52ee" stop-opacity="1"/>
    </linearGradient>
    <path id="path3" fill="#000000" stroke="url(#linearGradient3)" stroke-width="3" d="M 74 69 L 96 82"/>
    <linearGradient id="linearGradient4" x1="55.743015" y1="80.772537" x2="30.256985" y2="70.227463" gradientUnits="userSpaceOnUse">
        <stop offset="1e-05" stop-color="#3245ff" stop-opacity="1"/>
        <stop offset="1" stop-color="#bc52ee" stop-opacity="1"/>
    </linearGradient>
    <path id="path4" fill="#000000" stroke="url(#linearGradient4)" stroke-width="3" d="M 54 69 L 32 82"/>
    <linearGradient id="linearGradient5" x1="52" y1="52" x2="76" y2="76" gradientUnits="userSpaceOnUse">
        <stop offset="1e-05" stop-color="#3245ff" stop-opacity="1"/>
        <stop offset="1" stop-color="#bc52ee" stop-opacity="1"/>
    </linearGradient>
    <path id="path5" fill="url(#linearGradient5)" stroke="none" d="M 76 64 C 76 70.627419 70.627419 76 64 76 C 57.372581 76 52 70.627419 52 64 C 52 57.372581 57.372581 52 64 52 C 70.627419 52 76 57.372581 76 64 Z"/>
    <path id="path6" fill="#0d0f14" stroke="none" d="M 70 64 C 70 67.313705 67.313705 70 64 70 C 60.686291 70 58 67.313705 58 64 C 58 60.686295 60.686291 58 64 58 C 67.313705 58 70 60.686295 70 64 Z"/>
</svg>
