<?xml version="1.0" encoding="UTF-8"?>
<!-- Generated by Pixelmator Pro 3.7.1 -->
<svg width="512" height="512" viewBox="0 0 512 512" xmlns="http://www.w3.org/2000/svg">
    <clipPath id="clipPath1">
        <path clip-rule="evenodd" d="M 134.749173 451.485613 C 134.416624 450.861624 133.950821 450.41003 133.353974 450.135724 C 131.951736 448.481912 130.538675 446.83442 129.114731 445.19314 C 95.31671 387.008989 61.671774 328.734251 28.181404 270.37149 C 23.502181 259.141506 24.142869 248.251207 30.103205 237.700147 C 62.641809 181.347727 95.18063 124.995147 127.719235 68.642726 C 135.034512 57.414507 145.40612 51.734372 158.834257 51.602206 C 223.719719 51.747164 288.594158 51.755627 353.455056 51.628699 C 365.211999 51.922986 374.64389 56.792825 381.750698 66.238163 C 415.549848 124.422649 449.194784 182.697387 482.684024 241.059814 C 487.305845 251.998391 486.85131 262.677789 481.321717 273.100253 C 448.784427 329.442682 416.244211 385.796036 383.705721 442.157658 C 376.87846 453.45249 366.883327 459.429505 353.719228 460.086198 C 287.797735 459.923881 221.887188 459.896827 155.988999 460.007404 C 147.923976 459.573839 140.844187 456.733154 134.749173 451.485613 Z"/>
    </clipPath>
    <g id="Associer" clip-path="url(#clipPath1)">
        <g id="Ligne-2">
            <path id="Triangle" fill="#2d4199" fill-rule="evenodd" stroke="none" d="M 68.887253 148.791199 L 6.6648 256.772583 L 131.109711 256.772583 Z"/>
            <path id="Triangle-copie-3" fill="#9f295b" fill-rule="evenodd" stroke="none" d="M 438.734619 148.791199 L 376.512146 256.772583 L 500.957062 256.772583 Z"/>
            <path id="Triangle-copie" fill="#363592" fill-rule="evenodd" stroke="none" d="M 192.373596 148.791199 L 130.151138 256.772583 L 254.596054 256.772583 Z"/>
            <path id="Triangle-copie-2" fill="#4d308c" fill-rule="evenodd" stroke="none" d="M 315.24826 148.791199 L 253.025818 256.772583 L 377.470734 256.772583 Z"/>
            <path id="path1" fill="#343795" fill-rule="evenodd" stroke="none" d="M 377.148438 257.384216 L 439.37088 149.402863 L 314.925964 149.402863 Z"/>
            <path id="path2" fill="#353896" fill-rule="evenodd" stroke="none" d="M 253.662094 257.384216 L 315.884552 149.402863 L 191.439636 149.402863 Z"/>
            <path id="path3" fill="#284fa1" fill-rule="evenodd" stroke="none" d="M 130.787415 257.384216 L 193.009857 149.402863 L 68.564957 149.402863 Z"/>
        </g>
        <g id="Ligne-2-inv">
            <path id="Triangle-copie-8" fill="#4f9ac7" fill-rule="evenodd" stroke="none" d="M 377.103119 42.033142 L 314.880646 150.014526 L 439.325562 150.014526 Z"/>
            <path id="Triangle-copie-7" fill="#2d61ac" fill-rule="evenodd" stroke="none" d="M 130.130417 42.033142 L 67.907967 150.014526 L 192.352875 150.014526 Z"/>
            <path id="Triangle-copie-6" fill="#3371b2" fill-rule="evenodd" stroke="none" d="M 254.005096 42.033142 L 191.782654 150.014526 L 316.22757 150.014526 Z"/>
            <path id="Triangle-copie-5" fill="#4ba1c8" fill-rule="evenodd" stroke="none" d="M 315.516907 150.62619 L 377.73938 42.644806 L 253.294464 42.644806 Z"/>
            <path id="Triangle-copie-4" fill="#3a79b6" fill-rule="evenodd" stroke="none" d="M 192.418915 150.62619 L 254.641373 42.644806 L 130.196457 42.644806 Z"/>
        </g>
        <g id="Ligne-3">
            <path id="path4" fill="#e2322b" fill-rule="evenodd" stroke="none" d="M 438.999359 364.142273 L 501.221832 256.160919 L 376.776917 256.160919 Z"/>
            <path id="path5" fill="#4f2e89" fill-rule="evenodd" stroke="none" d="M 69.152008 364.142273 L 131.374466 256.160919 L 6.929557 256.160919 Z"/>
            <path id="path6" fill="#8c296c" fill-rule="evenodd" stroke="none" d="M 315.513031 364.142273 L 377.735474 256.160919 L 253.290573 256.160919 Z"/>
            <path id="path7" fill="#762a7c" fill-rule="evenodd" stroke="none" d="M 192.638351 364.142273 L 254.860809 256.160919 L 130.415894 256.160919 Z"/>
            <path id="path8" fill="#602c80" fill-rule="evenodd" stroke="none" d="M 130.73819 255.937592 L 68.515739 363.918976 L 192.960648 363.918976 Z"/>
            <path id="path9" fill="#872971" fill-rule="evenodd" stroke="none" d="M 254.224533 255.937592 L 192.002075 363.918976 L 316.446991 363.918976 Z"/>
            <path id="path10" fill="#b42b47" fill-rule="evenodd" stroke="none" d="M 377.099213 255.937592 L 314.87677 363.918976 L 439.321655 363.918976 Z"/>
        </g>
        <g id="Ligne-3-inv">
            <path id="path11" fill="#88296d" fill-rule="evenodd" stroke="none" d="M 130.783524 471.90033 L 193.005966 363.918945 L 68.561066 363.918945 Z"/>
            <path id="path12" fill="#ce2c34" fill-rule="evenodd" stroke="none" d="M 376.756195 471.90033 L 438.978638 363.918945 L 314.533752 363.918945 Z"/>
            <path id="path13" fill="#aa2854" fill-rule="evenodd" stroke="none" d="M 253.881516 471.90033 L 316.103973 363.918945 L 191.659073 363.918945 Z"/>
            <path id="path14" fill="#9a2a62" fill-rule="evenodd" stroke="none" d="M 192.369705 364.307312 L 130.147247 472.288696 L 254.592163 472.288696 Z"/>
            <path id="path15" fill="#ba2b49" fill-rule="evenodd" stroke="none" d="M 315.467712 364.307312 L 253.245255 472.288696 L 377.690155 472.288696 Z"/>
        </g>
    </g>
</svg>
