<?xml version="1.0" encoding="UTF-8"?>
<svg width="800" height="800" viewBox="0 0 800 800" xmlns="http://www.w3.org/2000/svg">
    <g id="Associer">
        <g id="g1">
            <path id="Trac" fill="#000000" stroke="none" d="M 383.36438 429.569153 C 383.36438 429.569153 338.76712 343.634308 340.414459 280.840088 C 341.61615 235.967468 442.793945 191.610535 482.516052 127.202393 C 522.169678 62.759216 477.572449 0 477.572449 0 C 477.572449 0 487.494629 46.279602 461.0578 94.139648 C 434.622559 142.068176 337.048187 170.18573 299.111877 252.790894 C 261.175568 335.396057 383.36438 429.569153 383.36438 429.569153 Z"/>
            <path id="path1" fill="#000000" stroke="none" d="M 550.288879 168.503418 C 550.288879 168.503418 398.298553 226.354065 398.298553 292.409546 C 398.298553 358.533478 439.566101 379.99173 446.227051 401.449982 C 452.81958 422.976685 434.657562 459.300659 434.657562 459.300659 C 434.657562 459.300659 494.122131 417.998047 484.164978 370.071136 C 474.242798 322.142639 427.996643 307.241882 454.466858 259.383423 C 472.148193 227.281982 550.288879 168.503418 550.288879 168.503418 Z"/>
            <path id="path2" fill="#000000" stroke="none" d="M 366.884705 516.875977 C 507.338989 511.863953 558.563721 467.540466 558.563721 467.540466 C 467.720337 492.294922 226.465485 490.681061 224.783142 472.519043 C 223.169235 454.357056 299.113464 439.456268 299.113464 439.456268 C 299.113464 439.456268 180.185898 439.456268 170.263733 469.187805 C 160.339966 498.920898 226.532333 521.786133 366.884705 516.875977 Z"/>
            <path id="path3" fill="#000000" stroke="none" d="M 570.098206 586.503052 C 570.098206 586.503052 707.565002 557.183777 693.96936 482.509674 C 677.489685 391.597839 581.63269 442.820984 581.63269 442.820984 C 581.63269 442.820984 649.438965 442.820984 655.99646 484.088562 C 662.623962 525.391113 570.098206 586.503052 570.098206 586.503052 Z"/>
            <path id="path4" fill="#000000" stroke="none" d="M 502.360352 546.882813 C 502.360352 546.882813 467.71875 555.980469 416.39209 561.748535 C 347.589478 569.472717 264.401794 563.362427 257.775848 551.791382 C 251.253403 540.221863 269.345367 533.629395 269.345367 533.629395 C 186.706772 553.473755 231.923157 588.115356 328.774933 594.776245 C 411.790741 600.440918 535.353088 569.988403 535.353088 569.988403 L 502.360352 546.882813 Z"/>
            <path id="path5" fill="#000000" stroke="none" d="M 289.258148 619.05011 C 289.258148 619.05011 251.767487 620.114929 249.569473 639.959229 C 247.406448 659.666748 272.641632 677.38147 365.200775 682.875732 C 457.726501 688.368408 522.752258 657.572144 522.752258 657.572144 L 480.900513 632.166626 C 480.900513 632.166626 454.430298 637.727783 413.676788 643.222107 C 372.889923 648.749756 289.254944 638.792603 285.960297 631.136841 C 282.597198 623.409546 289.258148 619.05011 289.258148 619.05011 Z"/>
            <path id="path6" fill="#000000" stroke="none" d="M 649.37207 708.279602 C 663.688782 692.829773 644.942627 680.711121 644.942627 680.711121 C 644.942627 680.711121 651.535095 688.435242 642.814636 697.22583 C 633.990662 706.014771 553.55011 728.022095 424.665344 734.64801 C 295.815643 741.273926 155.910492 722.527832 151.481003 706.014771 C 147.189987 689.500061 223.132629 676.31665 223.132629 676.31665 C 214.343689 677.414917 108.599533 679.612915 105.23484 708.279602 C 101.938591 736.877869 151.481003 760.018433 349.819336 760.018433 C 548.057434 759.985046 635.123901 723.626038 649.37207 708.279602 Z"/>
            <path id="path7" fill="#000000" stroke="none" d="M 572.296204 773.236877 C 485.263153 790.814758 220.971207 779.725952 220.971207 779.725952 C 220.971207 779.725952 392.737427 820.512878 588.809326 786.386902 C 682.536743 770.044067 687.995972 724.690857 687.995972 724.690857 C 687.995972 724.690857 659.329285 755.555542 572.296204 773.236877 Z"/>
        </g>
        <g id="g2"/>
        <g id="g3"/>
        <g id="g4"/>
        <g id="g5"/>
        <g id="g6"/>
        <g id="g7"/>
        <g id="g8"/>
        <g id="g9"/>
        <g id="g10"/>
        <g id="g11"/>
        <g id="g12"/>
        <g id="g13"/>
        <g id="g14"/>
        <g id="g15"/>
        <g id="g16"/>
    </g>
</svg>
