<?xml version="1.0" encoding="UTF-8"?>
<svg width="691" height="384" viewBox="0 0 691 384" xmlns="http://www.w3.org/2000/svg">
    <path
        d="M 229 38 L 228 39 L 226 39 L 225 40 L 224 40 L 223 41 L 220 41 L 219 42 L 214 42 L 213 43 L 212 43 L 209 46 L 204 46 L 202 48 L 201 48 L 199 50 L 198 50 L 197 51 L 196 51 L 195 52 L 194 52 L 192 54 L 191 54 L 190 55 L 190 56 L 189 57 L 189 61 L 190 62 L 190 63 L 192 63 L 193 64 L 198 64 L 199 63 L 202 63 L 204 61 L 205 61 L 207 59 L 211 59 L 212 58 L 213 58 L 214 57 L 215 57 L 216 56 L 218 56 L 219 55 L 223 55 L 224 54 L 250 54 L 251 55 L 253 55 L 254 56 L 255 56 L 257 58 L 258 58 L 259 59 L 261 59 L 262 60 L 263 60 L 264 61 L 265 61 L 267 63 L 269 63 L 270 64 L 271 64 L 274 67 L 275 67 L 276 68 L 277 68 L 278 69 L 279 69 L 280 70 L 280 71 L 281 72 L 282 72 L 284 74 L 284 75 L 289 80 L 289 81 L 291 83 L 291 84 L 292 84 L 293 85 L 293 86 L 294 87 L 294 121 L 293 122 L 293 124 L 292 125 L 292 131 L 293 132 L 293 138 L 294 139 L 294 143 L 295 144 L 295 145 L 297 147 L 297 148 L 298 149 L 298 152 L 300 154 L 300 155 L 302 157 L 302 158 L 303 159 L 303 160 L 306 163 L 306 164 L 308 166 L 308 167 L 312 171 L 312 172 L 313 172 L 317 176 L 317 177 L 322 182 L 322 183 L 328 189 L 328 190 L 332 194 L 332 195 L 333 195 L 336 198 L 336 199 L 337 199 L 339 201 L 339 202 L 344 207 L 344 208 L 345 209 L 346 209 L 348 211 L 348 212 L 353 217 L 353 218 L 354 218 L 355 219 L 356 219 L 357 220 L 357 221 L 359 223 L 360 223 L 365 228 L 366 228 L 370 232 L 371 232 L 373 234 L 373 235 L 374 235 L 378 239 L 378 240 L 381 243 L 379 245 L 375 245 L 374 244 L 371 244 L 370 243 L 368 243 L 367 242 L 362 242 L 361 241 L 354 241 L 353 240 L 352 240 L 351 239 L 350 239 L 349 238 L 348 238 L 347 237 L 343 237 L 342 236 L 339 236 L 337 234 L 336 234 L 335 233 L 333 233 L 332 232 L 329 232 L 328 231 L 326 231 L 325 230 L 324 230 L 323 229 L 322 229 L 321 228 L 317 228 L 316 227 L 314 227 L 313 226 L 312 226 L 311 225 L 310 225 L 309 224 L 308 224 L 307 223 L 303 223 L 302 222 L 301 222 L 300 221 L 299 221 L 298 220 L 297 220 L 296 219 L 294 219 L 293 218 L 291 218 L 290 217 L 289 217 L 287 215 L 284 215 L 283 214 L 280 214 L 279 213 L 278 213 L 277 212 L 276 212 L 274 210 L 272 210 L 271 209 L 268 209 L 266 207 L 265 207 L 264 206 L 263 206 L 262 205 L 260 205 L 259 204 L 257 204 L 256 203 L 255 203 L 253 201 L 252 201 L 251 200 L 248 200 L 247 199 L 246 199 L 244 197 L 242 197 L 241 196 L 240 196 L 239 195 L 237 195 L 235 193 L 234 193 L 233 192 L 230 192 L 229 191 L 228 191 L 227 190 L 226 190 L 224 188 L 220 188 L 219 187 L 217 187 L 216 186 L 209 186 L 208 185 L 205 185 L 204 184 L 187 184 L 186 185 L 180 185 L 179 186 L 174 186 L 173 187 L 170 187 L 169 188 L 167 188 L 166 189 L 165 189 L 164 190 L 162 190 L 161 191 L 159 191 L 157 193 L 156 193 L 154 195 L 153 195 L 152 196 L 151 196 L 146 201 L 145 201 L 144 202 L 144 203 L 143 204 L 141 204 L 140 205 L 139 205 L 138 206 L 137 206 L 136 207 L 135 207 L 133 209 L 132 209 L 131 210 L 130 210 L 124 216 L 123 216 L 123 217 L 122 218 L 122 220 L 120 222 L 120 223 L 119 224 L 118 224 L 118 225 L 117 226 L 117 227 L 116 228 L 115 228 L 112 231 L 112 232 L 111 233 L 106 233 L 105 234 L 104 234 L 102 236 L 99 236 L 98 237 L 79 237 L 78 236 L 77 236 L 76 235 L 76 234 L 75 234 L 74 233 L 69 233 L 68 232 L 63 232 L 62 231 L 62 230 L 61 230 L 60 229 L 58 229 L 56 227 L 54 227 L 51 224 L 49 224 L 48 223 L 47 223 L 46 222 L 45 222 L 43 220 L 42 220 L 37 215 L 34 215 L 33 214 L 27 214 L 26 215 L 26 224 L 27 225 L 27 226 L 28 227 L 29 227 L 30 228 L 30 229 L 31 230 L 31 231 L 32 231 L 36 235 L 36 236 L 37 236 L 41 240 L 43 240 L 44 241 L 45 241 L 46 242 L 47 242 L 49 244 L 51 244 L 52 245 L 57 245 L 58 246 L 63 246 L 64 247 L 65 247 L 66 248 L 67 248 L 68 249 L 70 249 L 71 250 L 83 250 L 84 251 L 85 251 L 86 252 L 87 252 L 88 253 L 90 253 L 91 254 L 93 254 L 94 255 L 96 255 L 97 256 L 98 256 L 100 258 L 101 258 L 102 259 L 105 259 L 109 263 L 110 263 L 117 270 L 117 272 L 120 275 L 120 276 L 121 277 L 121 278 L 122 279 L 122 281 L 125 284 L 125 285 L 126 286 L 126 287 L 131 292 L 131 293 L 138 300 L 139 300 L 141 302 L 142 302 L 143 303 L 144 303 L 145 304 L 147 304 L 148 305 L 151 305 L 152 306 L 153 306 L 154 307 L 155 307 L 156 308 L 158 308 L 159 309 L 161 309 L 162 310 L 165 310 L 167 312 L 168 312 L 169 313 L 172 313 L 173 314 L 175 314 L 176 315 L 177 315 L 178 316 L 180 316 L 181 317 L 185 317 L 186 318 L 191 318 L 192 319 L 195 319 L 196 320 L 197 320 L 198 321 L 200 321 L 201 322 L 207 322 L 208 323 L 215 323 L 216 324 L 218 324 L 219 325 L 223 325 L 224 326 L 227 326 L 228 325 L 229 326 L 268 326 L 269 325 L 270 325 L 271 326 L 272 326 L 273 325 L 277 325 L 278 324 L 286 324 L 287 323 L 297 323 L 298 322 L 309 322 L 310 321 L 316 321 L 317 320 L 319 320 L 320 319 L 327 319 L 328 318 L 338 318 L 339 317 L 349 317 L 350 316 L 359 316 L 360 315 L 363 315 L 364 314 L 366 314 L 367 313 L 381 313 L 382 312 L 387 312 L 388 311 L 389 311 L 390 310 L 391 310 L 392 309 L 401 309 L 402 308 L 407 308 L 408 307 L 411 307 L 412 306 L 414 306 L 415 305 L 418 305 L 419 304 L 423 304 L 424 303 L 427 303 L 428 302 L 430 302 L 431 301 L 432 301 L 433 300 L 437 300 L 438 299 L 440 299 L 441 298 L 443 298 L 444 297 L 445 297 L 446 296 L 447 296 L 448 295 L 453 295 L 454 294 L 456 294 L 458 292 L 459 292 L 460 291 L 463 291 L 464 290 L 466 290 L 467 289 L 468 289 L 470 287 L 471 287 L 472 286 L 479 286 L 480 285 L 484 285 L 485 284 L 488 284 L 489 283 L 493 283 L 494 282 L 527 282 L 528 283 L 531 283 L 532 284 L 535 284 L 536 285 L 548 285 L 549 286 L 555 286 L 556 287 L 560 287 L 561 288 L 562 288 L 563 289 L 565 289 L 566 290 L 569 290 L 570 291 L 574 291 L 575 292 L 576 292 L 577 293 L 578 293 L 579 294 L 582 294 L 583 295 L 589 295 L 590 296 L 593 296 L 594 297 L 596 297 L 597 298 L 601 298 L 602 299 L 607 299 L 608 300 L 619 300 L 620 301 L 626 301 L 627 302 L 630 302 L 631 303 L 646 303 L 648 301 L 648 295 L 647 294 L 647 293 L 646 292 L 645 292 L 643 290 L 643 289 L 642 288 L 642 287 L 641 287 L 638 284 L 638 283 L 637 282 L 636 282 L 635 281 L 635 280 L 634 279 L 633 279 L 628 274 L 627 274 L 625 272 L 625 271 L 623 269 L 622 269 L 621 268 L 620 268 L 616 264 L 615 264 L 611 260 L 610 260 L 609 259 L 608 259 L 607 258 L 606 258 L 603 255 L 602 255 L 601 254 L 600 254 L 599 253 L 598 253 L 596 251 L 595 251 L 594 250 L 592 250 L 589 247 L 588 247 L 587 246 L 585 246 L 584 245 L 583 245 L 581 243 L 580 243 L 579 242 L 578 242 L 577 241 L 575 241 L 573 239 L 572 239 L 571 238 L 570 238 L 569 237 L 568 237 L 567 236 L 566 236 L 563 233 L 562 233 L 561 232 L 560 232 L 559 231 L 557 231 L 555 229 L 554 229 L 552 227 L 550 227 L 547 224 L 546 224 L 545 223 L 544 223 L 542 221 L 541 221 L 539 219 L 538 219 L 537 218 L 535 218 L 532 215 L 531 215 L 530 214 L 529 214 L 528 213 L 527 213 L 526 212 L 526 211 L 525 210 L 524 210 L 523 209 L 522 209 L 521 208 L 520 208 L 518 206 L 517 206 L 515 204 L 514 204 L 510 200 L 509 200 L 508 199 L 507 199 L 505 197 L 504 197 L 489 182 L 488 182 L 485 179 L 485 178 L 479 172 L 479 171 L 477 169 L 476 169 L 475 168 L 475 166 L 471 162 L 471 161 L 469 159 L 469 158 L 468 157 L 468 156 L 467 156 L 466 155 L 466 154 L 465 153 L 465 152 L 462 149 L 462 148 L 461 147 L 461 146 L 460 146 L 459 145 L 459 144 L 457 142 L 457 141 L 456 140 L 456 139 L 453 136 L 453 135 L 452 134 L 452 133 L 451 132 L 450 132 L 448 130 L 448 129 L 446 127 L 446 126 L 439 119 L 439 118 L 437 116 L 437 115 L 436 115 L 434 113 L 434 112 L 428 106 L 428 105 L 427 105 L 426 104 L 426 103 L 424 101 L 424 100 L 423 100 L 420 97 L 420 96 L 419 95 L 418 95 L 417 94 L 417 93 L 416 92 L 415 92 L 411 88 L 411 87 L 410 87 L 405 82 L 403 82 L 400 79 L 399 79 L 398 78 L 397 78 L 396 77 L 395 77 L 394 76 L 393 76 L 392 75 L 391 75 L 389 73 L 384 73 L 382 71 L 381 71 L 380 70 L 379 70 L 378 69 L 343 69 L 342 70 L 334 70 L 333 71 L 330 71 L 329 72 L 328 72 L 327 73 L 319 73 L 318 74 L 308 74 L 307 73 L 306 73 L 305 72 L 305 71 L 304 70 L 303 70 L 301 68 L 300 68 L 296 64 L 294 64 L 293 63 L 293 62 L 291 60 L 290 60 L 287 57 L 287 56 L 285 56 L 282 53 L 282 52 L 281 52 L 280 51 L 278 51 L 277 50 L 276 50 L 273 47 L 271 47 L 270 46 L 269 46 L 268 45 L 267 45 L 265 43 L 264 43 L 263 42 L 256 42 L 255 41 L 253 41 L 251 39 L 249 39 L 248 38 Z"
        fill="black" stroke="none" />
</svg>