<?xml version="1.0" encoding="UTF-8"?>
<svg width="800" height="800" viewBox="0 0 800 800" xmlns="http://www.w3.org/2000/svg">
    <path id="Trac" fill="#000000" stroke="none" d="M 149.399994 63.325012 C 142.953979 84.867859 139.587311 107.214172 139.400009 129.700012 L 175.074997 146.974976 C 174.403625 125.767517 175.239059 104.539124 177.574997 83.450012 C 177.699997 82 177.849991 81.150024 177.849991 81.150024 C 177.849991 81.924988 177.625 82.674988 177.574997 83.450012 C 175.904495 104.307312 175.879425 125.263733 177.5 146.125 C 195.977844 130.392822 213.618683 113.703247 230.349991 96.125 C 223.248672 77.223938 208.920288 61.924133 190.524994 53.599976 C 190.524994 53.599976 158.925003 40.849976 149.399994 63.325012 Z"/>
    <path id="path1" fill="none" stroke="none" d="M 242.199997 243.049988 C 242.350006 243.001648 242.463806 242.878418 242.5 242.724976 L 240.5 244.5 C 240.5 244.674988 240.274994 244.825012 240.249985 244.974976 Z"/>
    <path id="path2" fill="none" stroke="none" d="M 264.050018 304.75 C 263.100006 305.899994 261.975006 307.024994 260.850006 308.149994 C 261.949982 307.049988 263.074982 305.899994 264.050018 304.75 Z"/>
    <path id="path3" fill="none" stroke="none" d="M 243.525009 494.399963 C 243.525009 493.874969 243.175003 493.300018 243.074982 492.775024 C 240.024994 481.650024 237.074997 470.874969 234.199997 460.274994 C 231.074997 448.425018 228.099991 436.799988 225.224991 425.5 C 222.274994 413.675018 219.449997 402.075012 216.825012 390.899994 C 214.024994 379.099976 211.450012 367.775024 209.050018 356.75 C 207.125 347.774994 205.25 339.074982 203.524994 330.574982 C 202.924988 327.699982 202.399994 324.950012 201.875 322.174988 C 200.824997 316.625 199.724991 311.274994 198.724991 306 C 197.724991 300.725006 196.899994 296.350006 196 291.625 C 195.725006 290.024994 195.449997 288.424988 195.150009 286.974976 L 195 286.099976 L 193.274994 287.649963 L 189.725006 285.900024 C 189.725006 286.275024 189.849991 286.700012 189.975006 287.075012 C 191.149994 294.199982 192.474991 301.399994 193.774994 308.649994 C 194.525009 312.75 195.350006 316.950012 196.099991 321.149994 C 198.300003 332.774994 200.624985 344.300018 203.150009 355.975006 C 205.675003 367.649994 208.150009 379.475006 210.850006 390.975006 C 213.549988 402.475037 216.199997 413.824982 218.950012 425.174988 C 221.699997 436.525024 224.499985 447.674988 227.399994 458.825012 C 230.375 470.475006 233.400009 481.950012 236.525009 493.174988 C 237.175018 495.674988 237.899994 498.325012 238.649994 500.675018 C 241.149994 509.824982 243.650009 518.699951 246.149994 527.5 L 251.875 530.375 L 253.774994 528.674988 C 253.754761 528.419678 253.677887 528.171997 253.550003 527.950012 C 249.824997 516.699951 246.625 505.375 243.525009 494.399963 Z"/>
    <path id="path4" fill="#000000" stroke="none" d="M 273.100006 337.375 C 271.425018 339.199982 269.700012 340.924988 267.950012 342.649994 L 267.950012 342.649994 C 268.850006 341.825012 269.775024 340.850006 270.625 339.949982 C 271.499908 339.141083 272.326355 338.28125 273.100006 337.375 Z"/>
    <path id="path5" fill="#000000" stroke="none" opacity="0.35" d="M 273.100006 337.375 C 271.425018 339.199982 269.700012 340.924988 267.950012 342.649994 L 267.950012 342.649994 C 268.850006 341.825012 269.775024 340.850006 270.625 339.949982 C 271.499908 339.141083 272.326355 338.28125 273.100006 337.375 Z"/>
    <path id="path6" fill="#000000" stroke="none" d="M 260 308.899994 L 260 308.899994 C 260.299988 308.674988 260.524994 308.375 260.800018 308.149994 C 261.925018 307.024994 263.050018 305.899994 264 304.75 C 262.75 306.125 261.325012 307.450012 259.975006 308.899994 Z"/>
    <path id="path7" fill="#000000" stroke="none" opacity="0.35" d="M 260 308.899994 L 260 308.899994 C 260.299988 308.674988 260.524994 308.375 260.800018 308.149994 C 261.925018 307.024994 263.050018 305.899994 264 304.75 C 262.75 306.125 261.325012 307.450012 259.975006 308.899994 Z"/>
    <path id="path8" fill="#000000" stroke="none" d="M 184.5 252.299988 C 182.833333 240.433329 181.333333 228.766663 180 217.299988 C 178.625 205.375 177.5 193.674988 176.724991 182.099976 C 176.724991 181.400024 176.600006 180.700012 176.724991 180.075012 C 175.800003 168.775024 175.25 157.75 175 146.950012 L 139.375 129.775024 C 139.375 131.924988 139.125 134.150024 139.049988 136.5 C 138.699997 145.025024 138.425003 154 138.349991 163.625 C 138.349991 174.375 138.349991 185.575012 138.549988 197.299988 C 138.800003 208.100037 139.25 219.349976 139.824997 230.799988 C 140.400009 240.599976 141.050003 250.5 141.849991 260.599976 C 141.849991 261.025024 141.849991 261.299988 141.849991 261.75 L 189.5 285.875 C 187.925003 274.599976 186.175003 263.400024 184.5 252.299988 Z"/>
    <path id="path9" fill="#000000" stroke="none" d="M 255 534.049988 C 257.5 542.950012 260.299988 552.125 263.200012 561.425049 C 263.200012 561.425049 263.200012 561.700012 263.200012 561.799988 C 263.600006 563.149963 263.925018 564.424988 264.424988 565.724976 C 266.325012 572 268.149994 577.575012 272.100006 590.325012 C 281.665222 589.739502 291.187744 592.02002 299.449982 596.875 C 292.968384 588.925415 283.620941 583.84314 273.425018 582.724976 C 301.406036 568.44928 319.042084 539.71228 319.100006 508.300018 C 318.799988 505.649994 318.450012 502.899994 317.924988 500.150024 C 317.335571 512.545105 309.977112 523.611572 298.774994 528.950012 L 298.774994 528.950012 L 298.774994 528.950012 C 310.328827 511.427643 315.696381 490.547028 314.024994 469.625 C 313.649994 464.799988 313.024994 459.625 312.149994 454.150024 C 309.326599 481.064606 292.475525 504.477264 267.850006 515.700012 L 253.399994 529 C 253.924988 530.674988 254.375 532.324951 255 534.049988 Z"/>
    <path id="path10" fill="#000000" stroke="none" d="M 236.324997 493.375 C 233.299988 482.075012 230.275009 470.599976 227.200012 459.024994 C 224.300003 447.924988 221.524994 436.725006 218.75 425.375 C 215.975006 414.025024 213.299988 402.600006 210.649994 391.175018 C 208 379.75 205.399994 367.825012 202.949997 356.174988 C 200.500015 344.524994 198.199997 332.899994 195.899994 321.350006 C 195.074997 317.149994 194.324997 313.050018 193.574997 308.850006 C 192.25 301.699982 191.074997 294.5 189.775009 287.275024 C 189.775009 286.900024 189.649994 286.474976 189.524994 286.099976 L 142.149994 261.924988 C 142.259293 262.678528 142.317764 263.438599 142.324997 264.200012 C 143.274994 274.924988 144.199997 285.825012 145.474991 296.700012 C 146.75 307.575012 148.125 318.950012 149.775009 330.224976 C 151.175003 339.725006 152.675003 349.149994 154.25 358.674988 C 154.574997 360.549988 154.949997 362.525024 155.274994 364.375 C 157.449997 376.149994 159.800003 387.525024 162.324997 398.149994 C 165.149994 410.200012 168.199997 421.5 171.25 432.049988 C 173.300003 438.950012 175.324997 445.599976 177.400009 451.899994 C 179.200012 457.200012 181.149994 462.524994 183.025009 467.775024 C 187.550003 480.100006 192.574997 492.049988 198.024994 503.725006 L 245.900009 527.974976 C 243.399994 519.175049 240.899994 510.225006 238.400009 501.149994 C 237.700012 498.524994 237.050003 496 236.324997 493.375 Z"/>
    <path id="path11" fill="#000000" stroke="none" d="M 198.675003 505.200012 C 205.164642 519.202637 212.520569 532.787354 220.699997 545.875 C 220.974991 546.275024 221.250015 546.824951 221.524994 547.224976 C 209.649612 543.965454 197.260513 543.006592 185.024994 544.399963 C 207.252686 550.580627 227.512497 562.385254 243.849991 578.674988 C 235.926682 585.622742 226.355911 590.425354 216.050003 592.625 C 226.281708 594.31073 236.773544 593.381958 246.550018 589.924988 C 237.154144 600.045593 230.73497 612.563843 228 626.100037 C 234.74028 612.773499 245.20578 601.691345 258.125 594.200012 C 272.5 641.849976 289.799988 693.5 308.975006 747.700012 C 311.956573 743.859009 312.802429 738.774414 311.225006 734.175049 C 307.699982 724.450012 284.875 659.974976 258.850006 572.474976 C 258.100006 569.974976 257.450012 567.474976 256.625 564.975037 C 256.399994 564.25 256.224976 563.625 256 562.875 C 253.333333 553.708333 250.616664 544.274984 247.849991 534.574951 C 247.250015 532.324951 246.600006 530.224976 246 527.950012 L 246 527.950012 L 198.125 503.700012 C 198.263123 504.215424 198.447189 504.717438 198.675003 505.200012 Z"/>
    <path id="path12" fill="#000000" stroke="none" d="M 195.150009 286.900024 C 195.425003 288.5 195.725006 289.924988 196 291.549988 C 196.925003 296.300018 197.75 301.100006 198.724991 305.925018 C 199.724991 311.200012 200.824997 316.575012 201.875 322.100006 C 202.399994 324.875 202.924988 327.649994 203.524994 330.5 C 205.25 339 207.125 347.700012 209.050018 356.675018 C 211.550003 367.700012 214.050003 379.024994 216.825012 390.825012 C 219.324997 401.975006 222.274994 413.600006 225.224991 425.425018 C 228.099991 436.700012 231 448.25 234.199997 460.200012 C 236.999985 470.774994 240.024994 481.650024 243.074982 492.700012 C 243.074982 493.225006 243.425018 493.800018 243.525009 494.325012 C 246.600006 505.299988 249.824997 516.625 253.175003 528.150024 C 253.195236 528.405396 253.27211 528.653076 253.399994 528.875 L 267.850006 515.574951 C 267.475006 515.574951 267.199982 515.900024 266.725006 516.099976 C 286.35907 494.501251 298.677216 467.257843 301.924988 438.250031 C 303.464264 423.806763 303.313263 409.233246 301.475006 394.825012 C 299.946411 382.307159 297.625061 369.898865 294.524994 357.675018 C 291.674988 346.225006 288.175018 334.075012 283.899994 321.274994 C 280.956146 327.053955 277.247864 332.41037 272.875 337.200012 L 270.375 339.949982 C 269.549988 340.875 268.625 341.674988 267.700012 342.649994 L 267.700012 342.649994 C 279.195038 323.909363 282.926178 301.423889 278.099976 279.975037 C 274.872528 289.030945 270.027252 297.425507 263.799988 304.75 C 262.850006 305.899994 261.725006 307.024994 260.600006 308.149994 C 260.299988 308.375 260.075012 308.674988 259.699982 308.975006 L 259.699982 308.975006 C 263.644531 302.613708 266.761383 295.775177 268.975006 288.625 C 269.415405 287.230347 269.774353 285.811279 270.049988 284.375 C 270.549988 282.200012 270.900024 280 271.225006 277.799988 C 271.350006 276.349976 271.575012 275 271.700012 273.525024 C 271.989288 270.089417 271.989288 266.635559 271.700012 263.200012 C 271.700012 262.049988 271.700012 261.025024 271.425018 259.950012 C 271.149994 258.349976 270.950012 256.849976 270.649994 255.399963 C 269.5 248.725037 268.149994 242.899963 266.924988 237.900024 C 266.274994 235.400024 265.674988 233.100037 265.024994 231.025024 C 264.725006 230.200012 264.575012 229.399963 264.274994 228.525024 C 263.5 226.25 262.875 224.149963 262.175018 222.400024 C 261.40918 220.337708 260.532928 218.318115 259.549988 216.350037 L 259.549988 216.350037 C 259.311798 217.34552 258.959473 218.310242 258.5 219.224976 C 254.302979 227.789856 248.823212 235.663818 242.249985 242.575012 L 255.574982 230.399963 L 242.175003 242.5 C 242.053894 242.56781 241.970856 242.687744 241.950012 242.825012 C 241.261292 243.514343 240.610367 244.240417 240.000015 245 C 240.000015 244.825012 240.225006 244.674988 240.249985 244.525024 L 194.75 286.150024 C 195.125 286.474976 195.175003 286.724976 195.150009 286.900024 Z"/>
    <path id="path13" fill="#000000" stroke="none" d="M 177.5 146.125 C 178.050003 156.125 178.925003 167.325012 180 179.724976 C 180.022186 180.380005 180.097427 181.032166 180.225006 181.674988 C 181.25 192.5 182.574997 204.174988 184.274994 216.899963 C 185.724991 227.875 187.324997 239.400024 189.275009 251.900024 C 190.900009 262.724976 192.900009 274.049988 194.949997 286.075012 L 240.449997 244.400024 C 248.187729 232.080872 252.158661 217.769836 251.875 203.224976 C 251.875 199.650024 251.600006 195.900024 251.325012 192.049988 C 250.609665 180.057983 249.291321 168.109497 247.375015 156.25 C 245.684677 145.413208 243.423203 134.673279 240.599991 124.075012 C 239.132935 118.549255 237.389069 113.100708 235.375 107.75 C 233.750015 103.674988 232.049988 99.950012 230.375 96.400024 C 213.597198 113.853394 195.949783 130.449524 177.5 146.125 Z"/>
    <path id="path14" fill="#000000" stroke="none" d="M 270.674988 340 C 269.850006 340.924988 268.924988 341.725006 268 342.700012 L 268 342.700012 C 268.841797 341.751923 269.734802 340.850555 270.674988 340 Z"/>
    <path id="path15" fill="#000000" stroke="none" opacity="0.35" d="M 270.674988 340 C 269.850006 340.924988 268.924988 341.725006 268 342.700012 L 268 342.700012 C 268.841797 341.751923 269.734802 340.850555 270.674988 340 Z"/>
    <path id="path16" fill="#000000" stroke="none" d="M 270.674988 340 C 269.850006 340.924988 268.924988 341.725006 268 342.700012 L 268 342.700012 C 268.841797 341.751923 269.734802 340.850555 270.674988 340 Z"/>
    <path id="path17" fill="#000000" stroke="none" d="M 260 308.975006 C 260.299988 308.75 260.524994 308.450012 260.899994 308.149994 C 260.600006 308.375 260.375 308.674988 260 308.975006 Z"/>
    <path id="path18" fill="#000000" stroke="none" opacity="0.35" d="M 260 308.975006 C 260.299988 308.75 260.524994 308.450012 260.899994 308.149994 C 260.600006 308.375 260.375 308.674988 260 308.975006 Z"/>
    <path id="path19" fill="#000000" stroke="none" d="M 260 308.975006 C 260.299988 308.75 260.524994 308.450012 260.899994 308.149994 C 260.600006 308.375 260.375 308.674988 260 308.975006 Z"/>
    <path id="path20" fill="#000000" stroke="none" d="M 615.675049 72.275024 C 593.404907 84.523804 572.977905 99.858765 555 117.825012 L 570 160.075012 C 586.315247 142.478088 603.859375 126.061829 622.5 110.950012 C 623.775024 109.900024 624.549988 109.299988 624.549988 109.299988 C 623.899963 109.900024 623.150024 110.349976 622.5 110.950012 C 604.536987 126.385254 587.818542 143.212341 572.5 161.275024 C 599.849792 163.309021 627.287354 163.909851 654.700012 163.075012 C 664.04248 142.19458 664.681274 118.452515 656.475037 97.099976 C 656.475037 97.099976 641.174988 61.75 615.675049 72.275024 Z"/>
    <path id="path21" fill="none" stroke="none" d="M 547.5 290.674988 C 547.634583 290.73819 547.790405 290.73819 547.924988 290.674988 L 544.899963 290.5 C 544.75 290.5 544.474976 290.5 544.325012 290.700012 Z"/>
    <path id="path22" fill="none" stroke="none" d="M 516.125 357.699982 C 514.424988 357.875 512.625 357.875 510.825012 357.899994 C 512.650024 357.875 514.449951 357.875 516.125 357.699982 Z"/>
    <path id="path23" fill="none" stroke="none" d="M 348.950012 494.075012 C 349.299988 493.575012 349.524994 492.924988 349.875 492.399963 C 356.25 481 362.375 469.899994 368.625 459.125 C 375.524994 447.100006 382.375 435.375031 389.024994 424.125 C 396.024994 412.274994 403.000031 400.675018 409.75 389.599976 C 416.874969 377.899994 423.774994 366.725006 430.625 355.950012 C 436.200012 347.199982 441.599976 338.725006 446.975006 330.5 C 448.774994 327.725006 450.549988 325.075012 452.325012 322.425018 C 455.875 317.125 459.274994 311.949982 462.650024 306.899994 C 465.824982 302.25 468.850006 297.700012 471.875 293.149994 C 472.924988 291.650024 473.974976 290.125 474.875031 288.75 L 475.400024 288 L 472.900024 288 L 471.449982 283.775024 C 471.25 284.150024 470.924988 284.524963 470.725006 284.924988 C 466 291.575012 461.274994 298.375 456.650024 305.299988 C 454 309.200012 451.324982 313.25 448.524994 317.274994 C 441.025024 328.375 433.75 339.5 426.550018 350.924988 C 419.350006 362.350006 411.950012 373.875 404.875 385.299988 C 397.799988 396.725006 391.024994 407.924988 384.225006 419.274994 C 377.424988 430.625 370.799988 441.774994 364.225006 453.074982 C 357.375 464.825012 350.675018 476.450012 344.225006 488.075012 C 342.75 490.574982 341.25 493.324982 339.899994 495.900024 C 334.649994 505.249969 329.574982 514.349976 324.625 523.400024 L 326.950012 530.25 L 329.850006 530.400024 C 330.040131 530.175171 330.17688 529.910217 330.25 529.625 C 336.299988 517.025024 342.724976 505.350006 348.950012 494.075012 Z"/>
    <path id="path24" fill="#000000" stroke="none" d="M 497.5 391.149994 C 494.700012 391.300018 491.924988 391.300018 489.149994 391.300018 L 489.149994 391.300018 C 490.524994 391.300018 492.049988 391.300018 493.450012 391.300018 C 494.801758 391.329926 496.154114 391.279846 497.5 391.149994 Z"/>
    <path id="path25" fill="#000000" stroke="none" opacity="0.35" d="M 497.5 391.149994 C 494.700012 391.300018 491.924988 391.300018 489.149994 391.300018 L 489.149994 391.300018 C 490.524994 391.300018 492.049988 391.300018 493.450012 391.300018 C 494.801758 391.329926 496.154114 391.279846 497.5 391.149994 Z"/>
    <path id="path26" fill="#000000" stroke="none" d="M 509.600006 357.850006 L 509.600006 357.850006 C 510 357.850006 510.424988 357.850006 510.850006 357.850006 C 512.650024 357.850006 514.449951 357.850006 516.150024 357.649994 C 514.049988 357.649994 511.850037 357.649994 509.625 357.800018 Z"/>
    <path id="path27" fill="#000000" stroke="none" opacity="0.35" d="M 509.600006 357.850006 L 509.600006 357.850006 C 510 357.850006 510.424988 357.850006 510.850006 357.850006 C 512.650024 357.850006 514.449951 357.850006 516.150024 357.649994 C 514.049988 357.649994 511.850037 357.649994 509.625 357.800018 Z"/>
    <path id="path28" fill="#000000" stroke="none" d="M 493.774994 252.274963 C 501.87499 241.408305 509.94165 230.808309 517.974976 220.474976 C 526.325012 209.775024 534.775024 199.525024 543.299988 189.549988 C 543.800049 188.924988 544.325012 188.325012 544.799988 187.825012 C 553.149963 178.099976 561.450012 168.799988 569.799988 159.900024 L 554.799988 117.775024 C 553.025024 119.450012 551.125 121.125 549.200012 122.900024 C 542.125 129.474976 534.724976 136.575012 527.099976 144.174988 C 518.5 152.75 509.600006 161.849976 500.5 171.450012 C 492.125 180.349976 483.549988 189.75 474.924988 199.424988 C 467.600006 207.775024 460.25 216.25 452.875 225.025024 L 452.024994 226 L 471.199982 283.275024 C 478.825012 272.950012 486.299988 262.5 493.774994 252.274963 Z"/>
    <path id="path29" fill="#000000" stroke="none" d="M 326.574982 535 C 321.575012 544.25 316.575012 553.75 311.450012 563.549988 C 311.450012 563.675049 311.274994 563.799988 311.25 563.924988 C 310.5 565.349976 309.75 566.625 309.125 568.049988 C 305.675018 574.599976 302.725006 580.549988 295.774994 593.949951 C 303.943756 601.076416 309.801727 610.47699 312.600006 620.949951 C 313.695251 609.407959 310.211639 597.897705 302.899994 588.900024 C 341.850006 596.400024 377.225006 591.400024 398.799988 565.275024 C 400.675018 562.924988 402.549988 560.424988 404.325012 557.775024 C 393.996826 567.276489 379.281494 570.331055 366.024994 565.724976 L 366.024994 565.724976 C 389.25473 560.773499 410.162628 548.198853 425.425018 530 C 428.950012 525.799988 432.525024 521.199951 436.200012 516.050049 C 412.541565 535.479126 380.368042 540.93811 351.625 530.400024 L 329.424988 529.625 C 328.475006 531.525024 327.5 533.199951 326.574982 535 Z"/>
    <path id="path30" fill="#000000" stroke="none" d="M 343.950012 487.5 C 350.5 475.974976 357.174988 464.349976 363.949982 452.5 C 370.449982 441.25 377.075012 430.000031 383.949982 418.699982 C 390.825012 407.399994 397.674988 396.049988 404.600006 384.725006 C 411.525024 373.399994 418.924988 361.75 426.275024 350.350006 C 433.624969 338.949982 440.950012 327.850006 448.25 316.700012 C 450.925018 312.649994 453.574982 308.75 456.374969 304.725006 C 460.974976 297.924988 465.725006 291.125 470.450012 284.349976 C 470.649994 283.974976 470.975006 283.599976 471.174988 283.200012 L 452.25 226.099976 C 451.736725 226.795288 451.177155 227.455139 450.575012 228.075012 C 442.824982 237.474976 434.924988 246.974976 427.225006 256.799988 C 419.524994 266.625 411.674988 276.799988 404.050018 287.225037 C 397.625 295.975006 391.350006 304.725006 385.050018 313.674988 C 383.824982 315.424988 382.549988 317.324982 381.350006 319.100006 C 373.850006 330.325012 366.575012 341.325012 360.174988 351.899994 C 352.875 363.850006 346.324982 375.375 340.450012 386.274994 C 336.625 393.475006 332.949982 400.425018 329.625 407.149994 C 326.850006 412.850006 324.200012 418.674988 321.550018 424.399994 C 315.399994 437.900024 309.949982 451.525024 305.024994 465.224976 L 324.299988 522.724976 C 329.299988 513.599976 334.450012 504.524994 339.575012 495.225006 C 340.949982 492.749969 342.5 490.199982 343.950012 487.5 Z"/>
    <path id="path31" fill="#000000" stroke="none" d="M 304.25 467.150024 C 298.352539 483.580963 293.484772 500.363495 289.674988 517.399963 C 289.674988 517.950012 289.350006 518.599976 289.274994 519.150024 C 282.301849 507.089294 273.086304 496.473541 262.125 487.875 C 275.107819 510.509399 282.038971 536.107422 282.25 562.200012 C 270.345917 561.49408 258.821167 557.75 248.775009 551.324951 C 255.670547 560.817627 264.855469 568.41156 275.475006 573.400024 C 259.872498 574.088318 244.761276 579.062012 231.800003 587.775024 C 247.81723 582.407837 265.048584 581.808594 281.399994 586.049988 C 255 635.799988 228 691.125 200.375015 750 C 205.806763 749.261536 210.503571 745.842285 212.875015 740.900024 C 217.875 730.25 250.624985 660.25 299.200012 569.099976 C 300.550018 566.599976 302.024994 563.974976 303.399994 561.25 C 303.800018 560.475037 304.150024 559.825012 304.550018 559.075012 C 309.683339 549.574972 314.991669 539.824972 320.475006 529.825012 C 321.774994 527.525024 322.975006 525.325012 324.25 523.025024 L 324.25 522.900024 L 304.975006 465.399994 C 304.678497 465.959076 304.43576 466.545044 304.25 467.150024 Z"/>
    <path id="path32" fill="#000000" stroke="none" d="M 474.849976 288.600006 C 473.799988 290.100006 472.900024 291.5 471.850006 293 C 468.825012 297.550018 465.675018 302.075012 462.624969 306.75 C 459.574982 311.424988 455.849976 316.975006 452.299988 322.274994 C 450.524994 324.924988 448.750031 327.574982 446.950012 330.350006 C 441.575012 338.575012 436.175018 347.075012 430.600037 355.800018 C 423.750031 366.575012 416.850006 377.75 409.725006 389.450012 C 402.974976 400.524994 396 412.099976 389 423.974976 C 382.350006 435.325012 375.524994 446.950012 368.600006 458.974976 C 362.450012 469.724976 356.25 480.849976 349.850006 492.25 C 349.5 492.749969 349.274994 493.399994 348.924988 493.924988 C 342.700012 505.200012 336.274994 516.875 329.800018 528.924988 C 329.609863 529.14978 329.473114 529.414795 329.399994 529.699951 L 351.600006 530.474976 C 351.225006 530.275024 350.799988 530.224976 350.274994 530 C 383.238678 528.203125 414.794983 516.05127 440.450012 495.275024 C 453.18335 484.887085 464.66098 473.048676 474.649994 460 C 483.357727 448.708923 491.340393 436.876831 498.549988 424.574982 C 505.350006 413.100006 512.200012 400.524994 518.924988 386.824982 C 511.964233 389.134705 504.724213 390.496948 497.399994 390.875 L 493.200012 391.100006 C 491.800018 391.100006 490.425018 391.100006 488.899994 391.100006 L 488.899994 391.100006 C 513.037598 385.139099 533.898865 369.999847 547.049988 348.899994 C 537.256653 353.632538 526.684998 356.546509 515.850037 357.5 C 514.150024 357.675018 512.349976 357.675018 510.550018 357.699982 C 510.149994 357.699982 509.725006 357.699982 509.175018 357.699982 L 509.175018 357.699982 C 517.400574 355.716461 525.3396 352.692078 532.799988 348.700012 C 534.263672 347.94928 535.682678 347.114532 537.049988 346.199982 C 539.200012 344.850006 541.200012 343.350006 543.224976 341.850006 C 544.5 340.799988 545.725037 339.850006 547 338.799988 C 549.946655 336.24176 552.672913 333.440216 555.149963 330.424988 C 556 329.450012 556.799988 328.600006 557.5 327.574982 C 558.549988 326.075012 559.575012 324.700012 560.475037 323.300018 C 564.849976 317.024994 568.475037 311.299988 571.450012 306.200012 C 572.924988 303.699982 574.25 301.350006 575.400024 299.149994 C 575.799988 298.25 576.325012 297.475006 576.75 296.649994 C 577.950012 294.149994 579.099976 292 579.924988 290.050018 C 580.940552 287.782959 581.833496 285.462952 582.600037 283.100037 L 582.600037 283.100037 C 581.618652 283.710388 580.570007 284.205383 579.475037 284.575012 C 569.294922 288.139191 558.630493 290.128784 547.849976 290.475006 L 568.25 291.25 L 547.849976 290.475006 C 547.715393 290.411804 547.55957 290.411804 547.424988 290.475006 C 546.35907 290.419189 545.290955 290.419189 544.224976 290.475006 C 544.375 290.475006 544.649963 290.475006 544.799988 290.274994 L 475.050018 287.774963 C 475.174988 288.225006 475 288.474976 474.849976 288.600006 Z"/>
    <path id="path33" fill="#000000" stroke="none" d="M 572.5 161.299988 C 565 169.775024 556.799988 179.5 547.849976 190.400024 C 547.344971 190.945068 546.885132 191.530334 546.474976 192.150024 C 538.700012 201.674988 530.525024 212.150024 521.75 223.725037 C 514.25 233.724976 506.25 244.325012 497.900024 255.975037 C 490.600006 265.974976 483.225006 276.700012 475.400024 288 L 545.150024 290.5 C 561.169128 286.737732 575.740601 278.378845 587.075012 266.450012 C 589.849976 263.525024 592.675049 260.349976 595.524963 257.025024 C 604.448547 246.779053 612.85083 236.090515 620.699951 225 C 627.911621 214.933716 634.587585 204.494202 640.700012 193.724976 C 643.912354 188.117188 646.841125 182.351624 649.474976 176.450012 C 651.400024 171.875 653 167.549988 654.475037 163.325012 C 627.133301 164.026794 599.773621 163.350891 572.5 161.299988 Z"/>
    <path id="path34" fill="#000000" stroke="none" d="M 493.450012 391.375 C 492.049988 391.375 490.675018 391.375 489.149994 391.375 L 489.149994 391.375 C 490.582275 391.29657 492.017761 391.29657 493.450012 391.375 Z"/>
    <path id="path35" fill="#000000" stroke="none" opacity="0.35" d="M 493.450012 391.375 C 492.049988 391.375 490.675018 391.375 489.149994 391.375 L 489.149994 391.375 C 490.582275 391.29657 492.017761 391.29657 493.450012 391.375 Z"/>
    <path id="path36" fill="#000000" stroke="none" d="M 493.450012 391.375 C 492.049988 391.375 490.675018 391.375 489.149994 391.375 L 489.149994 391.375 C 490.582275 391.29657 492.017761 391.29657 493.450012 391.375 Z"/>
    <path id="path37" fill="#000000" stroke="none" d="M 509.450012 357.824982 C 509.849976 357.824982 510.274994 357.824982 510.825012 357.824982 C 510.424988 357.824982 510 357.824982 509.450012 357.824982 Z"/>
    <path id="path38" fill="#000000" stroke="none" opacity="0.35" d="M 509.450012 357.824982 C 509.849976 357.824982 510.274994 357.824982 510.825012 357.824982 C 510.424988 357.824982 510 357.824982 509.450012 357.824982 Z"/>
    <path id="path39" fill="#000000" stroke="none" d="M 509.450012 357.824982 C 509.849976 357.824982 510.274994 357.824982 510.825012 357.824982 C 510.424988 357.824982 510 357.824982 509.450012 357.824982 Z"/>
</svg>
