<?xml version="1.0" encoding="UTF-8"?>
<!-- Generated by Pixelmator Pro 3.7.1 -->
<svg width="1200" height="630" viewBox="0 0 1200 630" xmlns="http://www.w3.org/2000/svg">
    <linearGradient id="linearGradient1" x1="0" y1="0" x2="1200" y2="630" gradientUnits="userSpaceOnUse">
        <stop offset="1e-05" stop-color="#0a0a0a" stop-opacity="1"/>
        <stop offset="0.5" stop-color="#0d1117" stop-opacity="1"/>
        <stop offset="1" stop-color="#0a0a0a" stop-opacity="1"/>
    </linearGradient>
    <path id="Trac" fill="url(#linearGradient1)" stroke="none" d="M 0 0 L 1200 0 L 1200 630 L 0 630 Z"/>
    <path id="path1" fill="#3245ff" stroke="none" opacity="0.08" d="M 550 315 C 550 453.071198 393.299652 565 200 565 C 6.700337 565 -150 453.071198 -150 315 C -150 176.928833 6.700337 65 200 65 C 393.299652 65 550 176.928833 550 315 Z"/>
    <path id="path2" fill="#bc52ee" stroke="none" opacity="0.06" d="M 1350 315 C 1350 453.071198 1193.299683 565 1000 565 C 806.700317 565 650 453.071198 650 315 C 650 176.928833 806.700317 65 1000 65 C 1193.299683 65 1350 176.928833 1350 315 Z"/>
    <g id="Associer">
        <clipPath id="clipPath1">
            <path clip-rule="evenodd" d="M 565.729797 196.415985 C 565.636658 196.241272 565.506226 196.114807 565.339111 196.037994 C 564.946472 195.574921 564.550842 195.113647 564.1521 194.654083 C 554.68869 178.362518 545.268097 162.045593 535.890808 145.70401 C 534.580597 142.559631 534.76001 139.510345 536.428894 136.55603 C 545.539703 120.777374 554.650574 104.998657 563.761414 89.219971 C 565.809692 86.07605 568.713684 84.485596 572.473572 84.448608 C 590.641541 84.489197 608.806335 84.491577 626.967407 84.456055 C 630.259338 84.538452 632.900269 85.901978 634.890198 88.546692 C 644.353943 104.838318 653.774536 121.155273 663.15155 137.496735 C 664.445618 140.55954 664.318359 143.549774 662.770081 146.468079 C 653.659668 162.243958 644.548401 178.022888 635.437622 193.804138 C 633.52594 196.966705 630.727356 198.640259 627.041382 198.824127 C 608.583374 198.778687 590.128418 198.771118 571.676941 198.802063 C 569.418701 198.680664 567.436401 197.885284 565.729797 196.415985 Z"/>
        </clipPath>
        <g id="g1" clip-path="url(#clipPath1)">
            <g id="g2">
                <path id="path3" fill="#2d4199" stroke="none" d="M 547.84845 111.381531 L 530.426147 141.616333 L 565.270691 141.616333 Z"/>
                <path id="path4" fill="#9f295b" stroke="none" d="M 650.285706 111.381531 L 632.863403 141.616333 L 667.708008 141.616333 Z"/>
                <path id="path5" fill="#363592" stroke="none" d="M 582.144592 111.381531 L 564.72229 141.616333 L 599.566895 141.616333 Z"/>
                <path id="path6" fill="#4d308c" stroke="none" d="M 615.989502 111.381531 L 598.5672 141.616333 L 633.411804 141.616333 Z"/>
            </g>
            <g id="g3">
                <path id="path7" fill="#343795" stroke="none" d="M 633.041565 142.067566 L 650.463867 111.832825 L 615.619263 111.832825 Z"/>
                <path id="path8" fill="#353896" stroke="none" d="M 598.745361 142.067566 L 616.167664 111.832825 L 581.32312 111.832825 Z"/>
                <path id="path9" fill="#284fa1" stroke="none" d="M 564.900452 142.067566 L 582.322754 111.832825 L 547.47821 111.832825 Z"/>
                <path id="path10" fill="#4f9ac7" stroke="none" d="M 633.588867 82.049255 L 616.166565 112.284058 L 651.011169 112.284058 Z"/>
                <path id="path11" fill="#2d61ac" stroke="none" d="M 564.996521 82.049255 L 547.574219 112.284058 L 582.418823 112.284058 Z"/>
                <path id="path12" fill="#3371b2" stroke="none" d="M 598.841431 82.049255 L 581.419128 112.284058 L 616.263733 112.284058 Z"/>
                <path id="path13" fill="#4ba1c8" stroke="none" d="M 616.344727 112.735352 L 633.767029 82.500549 L 598.922424 82.500549 Z"/>
                <path id="path14" fill="#3a79b6" stroke="none" d="M 581.59729 112.735352 L 599.019592 82.500549 L 564.174988 82.500549 Z"/>
            </g>
            <g id="g4">
                <path id="path15" fill="#e2322b" stroke="none" d="M 650.639832 171.399841 L 668.062134 141.16507 L 633.217529 141.16507 Z"/>
                <path id="path16" fill="#4f2e89" stroke="none" d="M 548.202576 171.399841 L 565.624878 141.16507 L 530.780273 141.16507 Z"/>
                <path id="path17" fill="#8c296c" stroke="none" d="M 616.343628 171.399841 L 633.76593 141.16507 L 598.921387 141.16507 Z"/>
                <path id="path18" fill="#762a7c" stroke="none" d="M 582.498718 171.399841 L 599.921021 141.16507 L 565.076477 141.16507 Z"/>
                <path id="path19" fill="#602c80" stroke="none" d="M 565.446716 140.262512 L 548.024414 170.497314 L 582.868958 170.497314 Z"/>
                <path id="path20" fill="#872971" stroke="none" d="M 599.742859 140.262512 L 582.320557 170.497314 L 617.165161 170.497314 Z"/>
                <path id="path21" fill="#b42b47" stroke="none" d="M 633.587769 140.262512 L 616.165466 170.497314 L 651.010071 170.497314 Z"/>
            </g>
            <g id="g5">
                <path id="path22" fill="#88296d" stroke="none" d="M 564.899414 200.732086 L 582.321655 170.497314 L 547.477112 170.497314 Z"/>
                <path id="path23" fill="#ce2c34" stroke="none" d="M 633.49176 200.732086 L 650.914001 170.497314 L 616.069458 170.497314 Z"/>
                <path id="path24" fill="#aa2854" stroke="none" d="M 599.646851 200.732086 L 617.069092 170.497314 L 582.224548 170.497314 Z"/>
                <path id="path25" fill="#9a2a62" stroke="none" d="M 582.143494 170.046051 L 564.721252 200.280823 L 599.565796 200.280823 Z"/>
                <path id="path26" fill="#ba2b49" stroke="none" d="M 616.89093 170.046051 L 599.468689 200.280823 L 634.313232 200.280823 Z"/>
            </g>
        </g>
    </g>
    <text id="HexaGlue" xml:space="preserve" x="438.416016" y="342" font-family="Helvetica" font-size="72" fill="#ffffff">HexaGlue</text>
    <text id="Audit-et-migration-darchitecture" xml:space="preserve" x="368.100586" y="407" font-family="Helvetica" font-size="28" fill="#e5e7eb">Audit et migration d'architecture hexagonale Java</text>
    <text id="Classification-automatique--Living" xml:space="preserve" x="283.114258" y="457" font-family="Helvetica" font-size="20" fill="#9ca3af">Classification automatique | Living documentation | Génération de code</text>
    <linearGradient id="linearGradient2" x1="350" y1="510" x2="850" y2="510" gradientUnits="userSpaceOnUse">
        <stop offset="1e-05" stop-color="#3245ff" stop-opacity="1"/>
        <stop offset="0.5" stop-color="#bc52ee" stop-opacity="1"/>
        <stop offset="1" stop-color="#e2322b" stop-opacity="1"/>
    </linearGradient>
    <path id="path27" fill="url(#linearGradient2)" stroke="none" opacity="0.8" d="M 352 510 L 848 510 C 849.104553 510 850 510.895416 850 512 L 850 512 C 850 513.104553 849.104553 514 848 514 L 352 514 C 350.895416 514 350 513.104553 350 512 L 350 512 C 350 510.895416 350.895416 510 352 510 Z"/>
</svg>
